<?xml version="1.0" encoding="utf-8"?>
<!-- Generator: Adobe Illustrator 26.0.3, SVG Export Plug-In . SVG Version: 6.00 Build 0)  -->
<svg version="1.1" xmlns="http://www.w3.org/2000/svg" xmlns:xlink="http://www.w3.org/1999/xlink" x="0px" y="0px"
	 viewBox="0 0 300 108.9" style="enable-background:new 0 0 300 108.9;" xml:space="preserve">
<style type="text/css">
	.st0{fill:#1D1934;}
	.st1{fill:#0082CA;}
	.st2{fill:#FFFFFF;}
</style>
<g id="Fondos">
</g>
<g id="Logos">
</g>
<g id="VB">
</g>
<g id="V">
</g>
<g id="V-E">
</g>
<g id="Isotipo__x2B__Texto">
</g>
<g id="Isotipo">
</g>
<g id="HB">
</g>
<g id="H">
	<g>
		<g>
			<path class="st1" d="M60.15,9.11L46.8,22.47c-0.67,0.67-1.76,0.67-2.43,0L31.01,9.11c-0.67-0.67-1.76-0.67-2.43,0l-5.47,5.47
				c-0.67,0.67-0.67,1.76,0,2.43l20.04,20.04c1.34,1.34,3.51,1.34,4.85,0L68.05,17c0.67-0.67,0.67-1.76,0-2.43l-5.47-5.47
				C61.91,8.44,60.83,8.44,60.15,9.11z"/>
			<path class="st1" d="M68.05,77.72l-5.47-5.47c-0.67-0.67-1.76-0.67-2.43,0L46.8,85.61c-0.67,0.67-1.76,0.67-2.43,0L31.01,72.25
				c-0.67-0.67-1.76-0.67-2.43,0l-5.47,5.47c-0.67,0.67-0.67,1.76,0,2.43l14.57,14.57l0,0l5.47,5.47c1.34,1.34,3.51,1.34,4.85,0
				l5.47-5.47l0,0l14.57-14.57C68.72,79.47,68.72,78.39,68.05,77.72z"/>
			<path class="st1" d="M12.8,24.89l-5.47,5.47c-0.67,0.67-0.67,1.76,0,2.43l13.36,13.36c0.67,0.67,0.67,1.76,0,2.43L7.33,61.93
				c-0.67,0.67-0.67,1.76,0,2.43l5.47,5.47c0.67,0.67,1.76,0.67,2.43,0l20.04-20.04c1.34-1.34,1.34-3.51,0-4.85L15.22,24.89
				C14.55,24.22,13.47,24.22,12.8,24.89z"/>
			<path class="st1" d="M83.83,30.36l-5.47-5.47c-0.67-0.67-1.76-0.67-2.43,0L55.9,44.93c-1.34,1.34-1.34,3.51,0,4.85l20.04,20.04
				c0.67,0.67,1.76,0.67,2.43,0l5.47-5.47c0.67-0.67,0.67-1.76,0-2.43L70.47,48.57c-0.67-0.67-0.67-1.76,0-2.43l13.36-13.36
				C84.5,32.12,84.5,31.03,83.83,30.36z"/>
		</g>
		<g>
			<g>
				<path class="st2" d="M146.34,67.88c-1.11,0.39-2.42,0.78-3.95,1.17c-1.53,0.39-3.16,0.77-4.88,1.12
					c-1.72,0.36-3.5,0.63-5.32,0.83c-1.82,0.2-3.61,0.29-5.37,0.29c-3.32,0-6.51-0.26-9.56-0.78c-3.06-0.52-5.74-1.58-8.05-3.17
					c-2.31-1.59-4.15-3.9-5.51-6.93c-1.37-3.03-2.05-7.08-2.05-12.15v-28.5c1.43-0.32,2.85-0.55,4.25-0.68
					c1.4-0.13,2.75-0.2,4.05-0.2c1.24,0,2.57,0.07,4,0.2c1.43,0.13,2.83,0.36,4.2,0.68V46.9c0,3.9,0.65,6.57,1.95,8
					c1.3,1.43,3.28,2.15,5.95,2.15c1.11,0,1.95-0.03,2.54-0.1c0.59-0.06,1.01-0.13,1.27-0.2V19.77c1.43-0.32,2.85-0.55,4.25-0.68
					c1.4-0.13,2.75-0.2,4.05-0.2c1.24,0,2.57,0.07,4,0.2c1.43,0.13,2.83,0.36,4.2,0.68V67.88z"/>
				<path class="st2" d="M159.61,33.53c-0.33-1.3-0.54-2.52-0.63-3.66c-0.1-1.14-0.15-2.23-0.15-3.27c0-1.04,0.05-2.11,0.15-3.22
					c0.1-1.11,0.31-2.31,0.63-3.61h26.25V50.8c0,3.71-0.54,6.88-1.61,9.52c-1.07,2.63-2.57,4.77-4.49,6.39
					c-1.92,1.63-4.16,2.81-6.73,3.56c-2.57,0.75-5.35,1.12-8.34,1.12c-0.98,0-2.36-0.11-4.15-0.34c-1.79-0.23-3.66-0.67-5.61-1.32
					c-0.07-0.52-0.11-1.02-0.15-1.51c-0.03-0.49-0.05-0.99-0.05-1.51c0-1.69,0.16-3.38,0.49-5.07c0.32-1.69,0.78-3.45,1.37-5.27
					c0.26,0.07,0.65,0.15,1.17,0.24c0.52,0.1,1.09,0.18,1.71,0.24c0.62,0.07,1.2,0.13,1.76,0.2c0.55,0.07,0.99,0.1,1.32,0.1
					c0.72,0,1.48-0.05,2.29-0.15c0.81-0.1,1.56-0.39,2.24-0.88c0.68-0.49,1.24-1.22,1.66-2.2c0.42-0.98,0.63-2.34,0.63-4.1v-16.3
					H159.61z"/>
				<path class="st2" d="M193.57,45.04c0-3.9,0.55-7.48,1.66-10.73c1.11-3.25,2.73-6.03,4.88-8.34c2.15-2.31,4.78-4.11,7.9-5.42
					c3.12-1.3,6.7-1.95,10.73-1.95c1.37,0,2.67,0.03,3.9,0.1c1.24,0.07,2.45,0.19,3.66,0.39c1.2,0.19,2.44,0.49,3.71,0.88
					s2.68,0.88,4.25,1.46c0.13,2.21-0.07,4.41-0.59,6.59c-0.52,2.18-1.33,4.31-2.44,6.39c-1.11-0.39-2.1-0.7-2.98-0.93
					c-0.88-0.23-1.71-0.41-2.49-0.54c-0.78-0.13-1.55-0.21-2.29-0.24c-0.75-0.03-1.55-0.05-2.39-0.05c-3.12,0-5.71,0.93-7.76,2.78
					c-2.05,1.85-3.07,5.06-3.07,9.61c0,2.41,0.31,4.41,0.93,6c0.62,1.6,1.43,2.85,2.44,3.76c1.01,0.91,2.18,1.56,3.51,1.95
					c1.33,0.39,2.75,0.59,4.24,0.59c1.89,0,3.53-0.16,4.93-0.49c1.4-0.32,3.04-0.84,4.93-1.56c1.11,1.76,1.98,3.73,2.63,5.9
					c0.65,2.18,0.98,4.67,0.98,7.47c-2.99,1.17-5.73,1.92-8.2,2.24c-2.47,0.32-4.94,0.49-7.42,0.49c-4.16,0-7.84-0.62-11.03-1.85
					c-3.19-1.24-5.87-3.01-8.05-5.32c-2.18-2.31-3.82-5.07-4.93-8.3C194.12,52.7,193.57,49.08,193.57,45.04z"/>
				<path class="st2" d="M272.71,19.77c0.52-0.13,1.59-0.26,3.22-0.39c1.63-0.13,3.28-0.19,4.98-0.19c2.15,0,4.15,0.07,6,0.19
					c1.85,0.13,3.14,0.26,3.85,0.39l-19.13,50.26c-1.37,0.32-2.75,0.54-4.15,0.63c-1.4,0.1-2.75,0.15-4.05,0.15
					c-1.3,0-2.64-0.05-4-0.15c-1.37-0.1-2.6-0.31-3.71-0.63L237,19.77c0.72-0.13,2-0.26,3.85-0.39c1.85-0.13,3.85-0.19,6-0.19
					c1.69,0,3.38,0.07,5.07,0.19c1.69,0.13,2.8,0.26,3.32,0.39l8.88,30.25c1.5-5.01,2.94-10.08,4.34-15.22
					C269.87,29.66,271.28,24.65,272.71,19.77z"/>
				<g>
					<path class="st2" d="M283.97,65.79c0-2.13,1.62-3.51,3.4-3.51c1.77,0,3.4,1.39,3.4,3.51c0,2.08-1.63,3.47-3.4,3.47
						C285.59,69.26,283.97,67.87,283.97,65.79z M287.37,68.15c1.24,0,2.27-0.91,2.27-2.36c0-1.49-1.03-2.4-2.27-2.4
						c-1.25,0-2.28,0.91-2.28,2.4C285.09,67.24,286.12,68.15,287.37,68.15z M286.21,64.12h1.31c0.77,0,1.14,0.45,1.14,1.12
						c0,0.48-0.17,0.78-0.64,1.06l0.77,1.07h-0.84l-0.68-1.04h-0.27v1.04h-0.79V64.12z M287.41,65.64c0.24,0,0.45-0.05,0.45-0.4
						c0-0.34-0.21-0.43-0.45-0.43h-0.44v0.83H287.41z"/>
				</g>
			</g>
			<g>
				<g>
					<path class="st2" d="M101.65,87.15v-5.22h0.98v5.21c0,1.44,0.88,2.09,1.93,2.09c1.04,0,1.92-0.65,1.92-2.09v-5.21h0.98v5.22
						c0,1.94-1.27,3.02-2.91,3.02C102.92,90.17,101.65,89.1,101.65,87.15z"/>
					<path class="st2" d="M109.28,84.11h0.96v0.97c0.31-0.57,0.96-1.09,1.99-1.09c1.25,0,2.32,0.78,2.32,2.56v3.5h-0.96v-3.36
						c0-1.2-0.71-1.82-1.66-1.82s-1.69,0.62-1.69,1.82v3.36h-0.96V84.11z"/>
					<path class="st2" d="M116.36,81.93h0.96v0.89h-0.96V81.93z M116.36,84.11h0.96v5.95h-0.96V84.11z"/>
					<path class="st2" d="M118.73,84.11h1l1.98,4.76l1.98-4.76h1l-2.53,5.95h-0.89L118.73,84.11z"/>
					<path class="st2" d="M125.46,87.08c0-2,1.46-3.09,2.96-3.09c1.51,0,3.09,1.09,2.85,3.44h-4.9c0.15,1.25,1.1,1.91,2.24,1.91
						c0.7,0,1.34-0.25,1.77-0.72l0.48,0.49c-0.54,0.66-1.4,1.05-2.36,1.05C126.92,90.17,125.46,89.06,125.46,87.08z M130.43,86.7
						c-0.07-1.22-1-1.88-1.99-1.88c-0.98,0-1.91,0.63-2.06,1.88H130.43z"/>
					<path class="st2" d="M132.83,84.11h0.96v1.48c0.22-0.86,0.81-1.59,1.91-1.59c0.14,0,0.25,0.01,0.34,0.05v0.9
						c-0.1-0.02-0.19-0.03-0.33-0.03c-1.11,0-1.92,0.84-1.92,2.16v2.99h-0.96V84.11z"/>
					<path class="st2" d="M137.11,88.56l0.8-0.22c0.16,0.63,0.63,1.03,1.29,1.03c0.56,0,1.12-0.28,1.12-0.93
						c0-0.49-0.34-0.74-1.03-1.03l-0.54-0.21c-0.98-0.4-1.4-0.98-1.4-1.66c0-0.94,0.81-1.56,1.84-1.56c0.95,0,1.66,0.53,1.86,1.33
						l-0.77,0.23c-0.18-0.49-0.54-0.77-1.06-0.77c-0.51,0-0.93,0.28-0.93,0.78c0,0.38,0.24,0.68,0.86,0.93l0.48,0.19
						c0.94,0.37,1.62,0.78,1.62,1.76c0,1.18-0.99,1.73-2.07,1.73C138.1,90.17,137.3,89.58,137.11,88.56z"/>
					<path class="st2" d="M142.8,81.93h0.96v0.89h-0.96V81.93z M142.8,84.11h0.96v5.95h-0.96V84.11z"/>
					<path class="st2" d="M150.47,90.06v-1.12h-0.03c-0.29,0.63-1.12,1.24-2.23,1.24c-1.44,0-2.92-1.05-2.92-3.09
						c0-2.04,1.48-3.09,2.92-3.09c1.11,0,1.95,0.61,2.23,1.24h0.03v-3.29h0.96v8.12H150.47z M148.36,89.29
						c1.08,0,2.14-0.74,2.14-2.21s-1.06-2.21-2.14-2.21c-1.05,0-2.12,0.73-2.12,2.21C146.25,88.56,147.31,89.29,148.36,89.29z"/>
					<path class="st2" d="M152.95,87.08c0-2.04,1.48-3.09,2.92-3.09c1.11,0,1.95,0.61,2.23,1.24h0.03v-1.12h0.96v5.95h-0.96v-1.12
						h-0.03c-0.29,0.63-1.12,1.24-2.23,1.24C154.43,90.17,152.95,89.12,152.95,87.08z M156.03,89.29c1.08,0,2.14-0.74,2.14-2.21
						s-1.06-2.21-2.14-2.21c-1.05,0-2.12,0.73-2.12,2.21C153.91,88.56,154.98,89.29,156.03,89.29z"/>
					<path class="st2" d="M165.8,90.06v-1.12h-0.03c-0.29,0.63-1.12,1.24-2.23,1.24c-1.44,0-2.92-1.05-2.92-3.09
						c0-2.04,1.48-3.09,2.92-3.09c1.11,0,1.95,0.61,2.23,1.24h0.03v-3.29h0.96v8.12H165.8z M163.7,89.29c1.08,0,2.14-0.74,2.14-2.21
						s-1.06-2.21-2.14-2.21c-1.05,0-2.12,0.73-2.12,2.21C161.58,88.56,162.65,89.29,163.7,89.29z"/>
					<path class="st2" d="M170.84,88.95l1.01-1.02c0.24,0.34,0.65,0.73,1.28,0.73c0.41,0,1.26-0.16,1.26-1.5v-5.23h1.57v5.43
						c0,2.08-1.43,2.8-2.75,2.8C172.1,90.17,171.29,89.68,170.84,88.95z"/>
					<path class="st2" d="M177.29,87.08c0-2.01,1.58-3.09,3.14-3.09c1.54,0,3.14,1.08,3.14,3.09c0,2.01-1.59,3.09-3.14,3.09
						C178.86,90.17,177.29,89.1,177.29,87.08z M180.42,88.79c0.86,0,1.61-0.64,1.61-1.71c0-1.06-0.76-1.7-1.61-1.7
						c-0.86,0-1.62,0.64-1.62,1.7C178.8,88.15,179.56,88.79,180.42,88.79z"/>
					<path class="st2" d="M184.38,88.5l1.22-0.33c0.11,0.39,0.4,0.79,0.98,0.79c0.39,0,0.77-0.2,0.77-0.62
						c0-0.29-0.18-0.49-0.65-0.66l-0.73-0.28c-0.98-0.35-1.4-0.98-1.4-1.7c0-1.06,0.94-1.71,2.06-1.71c1.08,0,1.86,0.61,2.06,1.52
						l-1.2,0.31c-0.16-0.48-0.47-0.63-0.79-0.63c-0.4,0-0.64,0.23-0.64,0.52c0,0.25,0.15,0.47,0.62,0.63l0.66,0.25
						c0.73,0.26,1.53,0.7,1.53,1.75c0,1.19-1.02,1.83-2.27,1.83C185.43,90.17,184.56,89.6,184.38,88.5z"/>
					<path class="st2" d="M189.92,87.08c0-2,1.49-3.09,3.01-3.09c1.51,0,3.23,1.06,2.9,3.68h-4.45c0.22,0.81,0.93,1.24,1.82,1.24
						c0.58,0,1.1-0.16,1.53-0.54l0.7,0.74c-0.49,0.62-1.35,1.05-2.4,1.05C191.39,90.17,189.92,89.06,189.92,87.08z M194.46,86.56
						c-0.09-0.85-0.8-1.27-1.52-1.27c-0.71,0-1.39,0.41-1.59,1.27H194.46z M193.53,81.59h1.24l-1.18,1.8h-1.2L193.53,81.59z"/>
					<path class="st2" d="M199.9,86c0-2.53,1.91-4.18,4.19-4.18c1.11,0,2.44,0.39,3.3,1.76l-1.14,0.79
						c-0.53-0.75-1.32-1.06-2.11-1.06c-1.44,0-2.63,1.04-2.63,2.69c0,1.66,1.2,2.69,2.64,2.69c0.81,0,1.57-0.31,2.09-1.06l1.14,0.79
						c-0.86,1.37-2.19,1.76-3.3,1.76C201.8,90.17,199.9,88.52,199.9,86z"/>
					<path class="st2" d="M208.26,87.08c0-2,1.49-3.09,3.01-3.09c1.51,0,3.23,1.06,2.9,3.68h-4.45c0.22,0.81,0.93,1.24,1.82,1.24
						c0.58,0,1.1-0.16,1.53-0.54l0.7,0.74c-0.49,0.62-1.35,1.05-2.4,1.05C209.72,90.17,208.26,89.06,208.26,87.08z M212.8,86.56
						c-0.09-0.85-0.8-1.27-1.52-1.27c-0.71,0-1.39,0.41-1.59,1.27H212.8z"/>
					<path class="st2" d="M215.25,87.08c0-2.01,1.57-3.09,3.14-3.09c1.05,0,1.99,0.49,2.56,1.46l-1.12,0.72
						c-0.31-0.47-0.81-0.8-1.43-0.8c-0.86,0-1.64,0.64-1.64,1.7c0,1.06,0.78,1.71,1.64,1.71c0.62,0,1.12-0.33,1.43-0.8l1.12,0.72
						c-0.57,0.96-1.51,1.46-2.56,1.46C216.82,90.17,215.25,89.1,215.25,87.08z"/>
					<path class="st2" d="M222.29,81.93h1.53v1.35h-1.53V81.93z M222.29,84.11h1.53v5.95h-1.53V84.11z"/>
					<path class="st2" d="M225.45,81.93h1.53v8.12h-1.53V81.93z"/>
					<path class="st2" d="M228.6,81.93h1.53v1.35h-1.53V81.93z M228.6,84.11h1.53v5.95h-1.53V84.11z"/>
					<path class="st2" d="M231.48,87.08c0-2.01,1.58-3.09,3.14-3.09c1.54,0,3.14,1.08,3.14,3.09c0,2.01-1.59,3.09-3.14,3.09
						C233.06,90.17,231.48,89.1,231.48,87.08z M234.61,88.79c0.86,0,1.61-0.64,1.61-1.71c0-1.06-0.76-1.7-1.61-1.7
						s-1.62,0.64-1.62,1.7C232.99,88.15,233.75,88.79,234.61,88.79z"/>
					<path class="st2" d="M246.41,90.06v-0.8h-0.03c-0.15,0.33-0.84,0.92-1.9,0.92c-1.38,0-2.86-1.03-2.86-3.09
						c0-2.06,1.48-3.09,2.86-3.09c1.06,0,1.75,0.58,1.9,0.92h0.03v-2.97h1.53v8.12H246.41z M244.79,88.8c0.86,0,1.66-0.59,1.66-1.72
						c0-1.12-0.8-1.72-1.66-1.72s-1.66,0.61-1.66,1.72C243.13,88.19,243.93,88.8,244.79,88.8z"/>
					<path class="st2" d="M249.29,87.08c0-2,1.49-3.09,3.01-3.09c1.51,0,3.23,1.06,2.9,3.68h-4.45c0.22,0.81,0.93,1.24,1.82,1.24
						c0.58,0,1.1-0.16,1.53-0.54l0.7,0.74c-0.49,0.62-1.35,1.05-2.4,1.05C250.75,90.17,249.29,89.06,249.29,87.08z M253.83,86.56
						c-0.09-0.85-0.8-1.27-1.52-1.27c-0.71,0-1.39,0.41-1.59,1.27H253.83z"/>
					<path class="st2" d="M256.57,81.93h1.53v8.12h-1.53V81.93z"/>
					<path class="st2" d="M262.14,81.93h1.69l2.27,6.17l2.27-6.17h1.69l-3.14,8.12h-1.66L262.14,81.93z"/>
					<path class="st2" d="M270.02,87.08c0-2.06,1.48-3.09,2.86-3.09c1.06,0,1.75,0.58,1.9,0.92h0.03v-0.8h1.53v5.95h-1.53v-0.8
						h-0.03c-0.15,0.33-0.84,0.92-1.9,0.92C271.5,90.17,270.02,89.14,270.02,87.08z M273.19,88.8c0.86,0,1.66-0.59,1.66-1.72
						c0-1.12-0.8-1.72-1.66-1.72c-0.86,0-1.66,0.61-1.66,1.72C271.54,88.19,272.34,88.8,273.19,88.8z"/>
					<path class="st2" d="M277.98,81.93h1.53v8.12h-1.53V81.93z"/>
					<path class="st2" d="M281.14,81.93h1.53v8.12h-1.53V81.93z"/>
					<path class="st2" d="M284.01,87.08c0-2,1.49-3.09,3.01-3.09c1.51,0,3.23,1.06,2.9,3.68h-4.45c0.22,0.81,0.93,1.24,1.82,1.24
						c0.58,0,1.1-0.16,1.53-0.54l0.7,0.74c-0.49,0.62-1.35,1.05-2.4,1.05C285.47,90.17,284.01,89.06,284.01,87.08z M288.55,86.56
						c-0.09-0.85-0.8-1.27-1.52-1.27c-0.71,0-1.39,0.41-1.59,1.27H288.55z"/>
				</g>
			</g>
		</g>
	</g>
</g>
<g id="H-E">
</g>
<g id="S-H">
</g>
</svg>
